<svg width="1246" height="1200" viewBox="0 0 1246 1200" fill="none" xmlns="http://www.w3.org/2000/svg">
<g clip-path="url(#clip0_2728_2675)">
<path d="M1246.33 221.734V64.0546H1203.28V0H40.9976V65.529H0V223.536H40.9976V487.7H0V645.379H40.9976V754.648L267.141 927.891L240.984 961.556L366.191 1057.8L392.101 1023.89L619.146 1197.79L620.786 1198.94L622.508 1200.16L626.362 1197.13C627.065 1196.54 627.804 1195.99 628.576 1195.49L629.232 1194.92L630.216 1194.18C630.79 1193.77 631.2 1193.28 631.773 1192.96L853.161 1021.84L879.891 1056.41L1005.26 960L978.941 925.597L1202.95 754.73V643.659H1246.33V486.143H1203.28V221.734H1246.33Z" fill="#E0E0E0"/>
<path d="M986.567 848.52H994.438L993.045 843.277L986.567 848.52Z" fill="#E0E0E0"/>
</g>
<defs>
<clipPath id="clip0_2728_2675">
<rect width="1246" height="1200" fill="white"/>
</clipPath>
</defs>
</svg>
