<?xml version="1.0" encoding="UTF-8"?><svg id="Layer_2" xmlns="http://www.w3.org/2000/svg" viewBox="0 0 586.58 196.92"><defs><style>.cls-1{stroke-width:0px;}</style></defs><path class="cls-1" d="m586.58,112.99c0,1.96-.49,3.79-1.47,5.48-.98,1.69-2.32,3.03-4.01,4s-3.52,1.46-5.48,1.46-3.77-.49-5.46-1.46-3.03-2.31-4.01-4-1.47-3.52-1.47-5.48.49-3.77,1.47-5.47,2.32-3.03,4.01-4.01,3.51-1.46,5.46-1.46,3.79.49,5.48,1.46,3.03,2.31,4.01,4.01c.98,1.7,1.47,3.52,1.47,5.47Zm-2.12,0c0-2.44-.86-4.52-2.59-6.24-1.73-1.73-3.81-2.59-6.25-2.59s-4.52.86-6.24,2.59-2.59,3.81-2.59,6.24.86,4.52,2.59,6.24c1.73,1.73,3.81,2.59,6.24,2.59s4.52-.86,6.25-2.59c1.72-1.72,2.59-3.81,2.59-6.24Zm-13.8-5.85h5.23c1.48,0,2.56.3,3.22.9s1,1.4,1,2.4c0,.78-.25,1.46-.76,2.04s-1.3.99-2.39,1.25c.45.17.78.35.99.54.3.27.61.66.93,1.19.02.04.65,1.17,1.89,3.38h-3.44c-1.12-2.23-1.87-3.56-2.25-3.99-.38-.43-.76-.65-1.15-.65-.09,0-.21.01-.36.04v4.6h-2.91v-11.7Zm2.91,4.96h1.26c.84,0,1.43-.14,1.78-.41.34-.27.52-.62.52-1.05s-.16-.78-.49-1.05c-.33-.27-.89-.41-1.69-.41h-1.38v2.93Z"/><polygon class="cls-1" points="75.92 81.91 75.92 90.84 75.92 98.01 75.94 98.01 75.94 73.48 75.92 73.48 75.92 81.91"/><polygon class="cls-1" points="75.92 98.01 75.92 123.3 75.98 123.3 75.99 98.01 75.94 98.01 75.92 98.01"/><polygon class="cls-1" points="75.94 73.48 75.94 73.48 75.99 73.48 75.99 46.1 75.92 46.1 75.92 73.48 75.94 73.48"/><polygon class="cls-1" points="75.94 90.84 75.94 81.9 75.99 81.9 75.99 73.48 75.94 73.48 75.94 98.01 75.99 98.01 75.99 90.84 75.94 90.84"/><rect class="cls-1" x="75.99" y="73.48" width=".08" height="8.42"/><rect class="cls-1" x="75.99" y="90.84" width=".08" height="7.17"/><polygon class="cls-1" points="116.91 78.08 122.36 73.98 127.86 77.92 125.89 71.43 131.31 67.18 124.4 67.18 122.36 61.16 120.38 67.18 113.61 67.18 119.04 71.43 116.91 78.08"/><path class="cls-1" d="m151.96,59.57v-19.25h-5.25v-7.82H4.97v8.03H0v19.26h4.97v32.26H0v19.25h4.97v13.34l27.58,21.15-3.19,4.12,15.27,11.75,3.19-4.16,27.68,21.23.2.13.21.15,28.17-21.8,3.26,4.23,15.25-11.73-3.22-4.2,27.33-20.86v-13.56h5.25v-19.22h-5.25v-32.28h5.25ZM23.27,78.21l2.12-6.68-5.43-4.23h6.76l1.99-6.02,2.05,6.02h6.89l-5.41,4.23,1.96,6.53-5.49-3.97-5.44,4.12Zm52.73,19.81l-.02,25.28h-16.62l-2.55,12.79-26.58-.02,24.04-89.97h21.72v27.38h6.85l7.65,28.61h-8.45l-.81-4.07h-5.23Zm63.69,23.26l-18.57,14.16.17.65h-.97l-44.17,33.73v-46.52h15.99l2.55,12.79h25.63l.8-.65-23.87-89.34h-21.09v-7h63.53v82.18Z"/><rect class="cls-1" x="76.08" y="90.84" width=".07" height="7.17"/><polygon class="cls-1" points="76.08 73.48 76.08 81.9 76.15 81.9 76.15 73.48 75.99 73.48 75.99 73.48 76.08 73.48"/><polygon class="cls-1" points="121.28 136.09 121.11 135.44 120.32 136.09 121.28 136.09"/><polygon class="cls-1" points="80.48 90.83 78.11 81.9 76.15 81.9 76.15 90.84 77.84 90.83 80.48 90.83"/><rect class="cls-1" x="75.94" y="81.9" width=".05" height="8.94"/><rect class="cls-1" x="75.99" y="81.9" width=".08" height="8.94"/><rect class="cls-1" x="76.08" y="81.9" width=".07" height="8.94"/><polygon class="cls-1" points="74.09 90.83 71.44 90.83 73.83 81.9 75.92 81.91 75.92 73.48 75.51 73.48 69.17 73.48 61.51 102.09 69.98 102.09 70.8 98.01 75.51 98.01 75.92 98.01 75.92 90.84 74.09 90.83"/><path class="cls-1" d="m120.79,26.65h25.92V.45h-25.92v19.6h-12.68V.45h-25.92v19.6h-12.69V.45h-25.92v19.6h-12.7V.45H4.99v26.2h115.8Zm10.84-16.28l1.99-6.01,2.04,6.01h6.91l-5.42,4.26,1.96,6.5-5.49-3.95-5.44,4.11,2.11-6.65-5.42-4.26h6.77Zm-38.57.37l1.98-6,2.05,6h6.91l-5.42,4.26,1.95,6.5-5.49-3.95-5.43,4.12,2.12-6.68-5.42-4.26h6.75Zm-38.56-.35l2-6.01,2.01,6.01h6.93l-5.42,4.24,1.96,6.52-5.48-3.97-5.45,4.12,2.1-6.66-5.41-4.24h6.76Zm-36.59,6.79l-5.45,4.12,2.12-6.66-5.41-4.24h6.76l1.99-6.01,2.04,6.01h6.9l-5.41,4.24,1.96,6.52-5.49-3.97Z"/><path class="cls-1" d="m205.51,76.31l-4.64,12.9h-24.14L212.05,0h17.72l35,89.21h-24.43l-4.27-12.9h-30.57Zm6.19-18.09h18.44l-9.05-30.51h-.35l-9.03,30.51Z"/><path class="cls-1" d="m272.97,0h19.72v89.21h-19.72V0Z"/><path class="cls-1" d="m306.97,22.31h18.58v7.34h.33c3.97-5.07,10.47-9.65,20.61-9.65,23.41,0,32.21,20.85,32.21,36.41,0,19.3-13.3,35.08-32.11,35.08-11.91,0-17.48-5.77-19.88-8.32v28.34h-19.74V22.31Zm52.01,33.52c0-7.98-5.73-17.13-16.56-17.13s-16.54,9.16-16.54,17.13c0,8.43,6.2,16.98,16.54,16.98s16.56-8.55,16.56-16.98Z"/><path class="cls-1" d="m409.61,15.18h-19.74V0h19.74v15.18Zm0,74.03h-19.74V22.31h19.74v66.9Z"/><path class="cls-1" d="m423.88,22.31h18.46v7.11h.24c2.02-3.26,6.19-9.42,17.99-9.42,6.25,0,13.3,2.67,16.85,5.8,3.57,3.13,7.66,8.43,7.66,21.56v41.85h-19.78v-36.52c0-4.71,0-13.87-10.34-13.87-11.29,0-11.29,9.89-11.29,13.99v36.4h-19.78V22.31Z"/><path class="cls-1" d="m562.71,68.24c-3.22,7.47-7.85,13.25-13.41,17.1-5.45,3.97-12.05,6.03-18.82,6.03-18.9,0-34.98-15.55-34.98-35.43,0-18.69,14.55-35.95,34.65-35.95s34.85,16.15,34.85,36.54c0,2.65-.24,3.73-.47,5.3h-49.49c1.16,7.97,7.7,12.66,15.44,12.66,6.09,0,9.28-2.78,12.04-6.27h20.19Zm-17.49-19.9c-.78-3.97-4.73-11.45-14.95-11.45s-14.19,7.48-14.99,11.45h29.94Z"/><path class="cls-1" d="m218.12,170.42h-20.25l-2.81,9.53h-18.21l21.7-57.72h19.46l21.69,57.72h-18.68l-2.89-9.53Zm-3.7-12.48l-6.37-20.75-6.31,20.75h12.68Z"/><path class="cls-1" d="m242.44,138.13h15v6.85c1.44-2.97,2.93-5.01,4.47-6.12,1.54-1.12,3.43-1.67,5.69-1.67s4.95.74,7.76,2.21l-4.96,11.42c-1.89-.79-3.39-1.18-4.49-1.18-2.1,0-3.73.87-4.88,2.6-1.65,2.44-2.48,7.01-2.48,13.7v14.02h-16.1v-41.82Z"/><path class="cls-1" d="m280.19,138.13h14.96v6.1c2.16-2.55,4.33-4.36,6.53-5.43s4.84-1.61,7.95-1.61c3.34,0,5.98.59,7.93,1.77,1.95,1.18,3.54,2.94,4.77,5.28,2.52-2.73,4.81-4.59,6.88-5.57,2.07-.98,4.63-1.48,7.67-1.48,4.48,0,7.98,1.33,10.5,4,2.52,2.67,3.78,6.83,3.78,12.5v26.26h-16.07v-23.82c0-1.89-.37-3.29-1.1-4.21-1.07-1.44-2.41-2.17-4-2.17-1.88,0-3.4.68-4.55,2.05-1.15,1.37-1.73,3.56-1.73,6.58v21.58h-16.07v-23.04c0-1.84-.11-3.08-.32-3.74-.34-1.05-.94-1.9-1.78-2.54-.84-.64-1.83-.96-2.96-.96-1.84,0-3.36.7-4.54,2.09-1.19,1.39-1.78,3.68-1.78,6.85v21.34h-16.06v-41.82Z"/><path class="cls-1" d="m356.73,159.16c0-6.38,2.15-11.64,6.46-15.77,4.3-4.13,10.12-6.2,17.44-6.2,8.37,0,14.7,2.43,18.98,7.28,3.44,3.91,5.16,8.73,5.16,14.45,0,6.43-2.13,11.7-6.4,15.81-4.27,4.11-10.17,6.16-17.7,6.16-6.72,0-12.15-1.71-16.3-5.12-5.09-4.23-7.64-9.77-7.64-16.62Zm16.07-.04c0,3.73.75,6.48,2.26,8.27,1.51,1.79,3.41,2.68,5.69,2.68s4.21-.88,5.69-2.64,2.22-4.58,2.22-8.47c0-3.62-.75-6.32-2.24-8.09-1.5-1.77-3.35-2.66-5.55-2.66-2.34,0-4.27.9-5.79,2.7-1.52,1.8-2.28,4.53-2.28,8.21Z"/><path class="cls-1" d="m410.62,138.13h15v6.85c1.44-2.97,2.93-5.01,4.47-6.12,1.54-1.12,3.43-1.67,5.69-1.67s4.95.74,7.76,2.21l-4.96,11.42c-1.89-.79-3.39-1.18-4.49-1.18-2.1,0-3.73.87-4.88,2.6-1.65,2.44-2.48,7.01-2.48,13.7v14.02h-16.1v-41.82Z"/><path class="cls-1" d="m444.83,122.23h16.03v10.91h-16.03v-10.91Zm0,15.91h16.03v41.82h-16.03v-41.82Z"/><path class="cls-1" d="m469.08,138.13h14.92v6.81c2.23-2.78,4.49-4.77,6.77-5.97,2.28-1.19,5.07-1.79,8.35-1.79,4.44,0,7.91,1.32,10.42,3.96,2.51,2.64,3.76,6.71,3.76,12.23v26.58h-16.11v-23c0-2.62-.49-4.48-1.46-5.57-.97-1.09-2.34-1.63-4.1-1.63-1.94,0-3.52.74-4.72,2.21-1.21,1.47-1.81,4.11-1.81,7.91v20.08h-16.03v-41.82Z"/><path class="cls-1" d="m549.95,138.13h15v39.49l.04,1.85c0,2.62-.56,5.12-1.67,7.5-1.12,2.38-2.6,4.3-4.45,5.77-1.85,1.47-4.2,2.53-7.05,3.19-2.85.66-6.11.98-9.79.98-8.4,0-14.17-1.26-17.31-3.78-3.14-2.52-4.71-5.89-4.71-10.12,0-.53.03-1.23.08-2.13l15.55,1.77c.39,1.44,1,2.44,1.81,2.99,1.18.81,2.66,1.22,4.45,1.22,2.31,0,4.04-.62,5.18-1.85,1.14-1.23,1.71-3.39,1.71-6.46v-6.34c-1.58,1.86-3.15,3.22-4.72,4.06-2.47,1.31-5.13,1.97-7.99,1.97-5.59,0-10.11-2.44-13.55-7.32-2.44-3.47-3.66-8.05-3.66-13.74,0-6.51,1.58-11.47,4.73-14.88,3.15-3.41,7.27-5.12,12.36-5.12,3.25,0,5.94.55,8.05,1.65s4.09,2.93,5.93,5.47v-6.18Zm-15.08,20.28c0,3.02.64,5.26,1.93,6.71s2.98,2.19,5.08,2.19,3.67-.75,5.02-2.26c1.35-1.51,2.03-3.79,2.03-6.83s-.71-5.38-2.13-6.99c-1.42-1.61-3.15-2.42-5.2-2.42s-3.68.74-4.9,2.22c-1.22,1.48-1.83,3.94-1.83,7.38Z"/></svg>